<!DOCTYPE svg PUBLIC "-//W3C//DTD SVG 20010904//EN" "http://www.w3.org/TR/2001/REC-SVG-20010904/DTD/svg10.dtd">
<svg version="1.0" xmlns="http://www.w3.org/2000/svg" width="796px" height="795px" viewBox="0 0 7960 7950" preserveAspectRatio="xMidYMid meet">
<g id="layer101" fill="#323232" stroke="none">
 <path d="M3660 7914 c-19 -2 -80 -9 -135 -15 -1239 -130 -2376 -880 -2997 -1979 -234 -413 -392 -865 -463 -1327 -36 -233 -45 -361 -45 -623 0 -262 9 -390 45 -623 48 -309 143 -642 266 -930 529 -1237 1657 -2127 2974 -2346 243 -40 324 -46 665 -46 341 0 422 6 665 46 1165 194 2192 916 2780 1954 230 407 389 863 460 1322 36 233 45 361 45 623 0 262 -9 390 -45 623 -241 1566 -1427 2851 -2975 3221 -328 79 -488 97 -880 101 -179 2 -341 1 -360 -1z m750 -338 c829 -108 1551 -464 2136 -1052 573 -576 916 -1283 1031 -2119 25 -185 25 -685 0 -870 -115 -836 -460 -1546 -1032 -2120 -589 -590 -1298 -939 -2140 -1052 -184 -24 -686 -24 -870 0 -834 112 -1550 462 -2130 1042 -580 580 -930 1296 -1042 2130 -24 184 -24 686 0 870 112 834 462 1550 1042 2130 623 623 1395 978 2305 1059 108 9 581 -3 700 -18z"/>
 <path d="M3665 7514 c-16 -2 -73 -9 -125 -15 -634 -70 -1244 -322 -1780 -735 -149 -115 -479 -445 -594 -594 -406 -526 -637 -1076 -733 -1741 -25 -179 -25 -739 0 -918 96 -665 327 -1215 733 -1741 115 -149 445 -479 594 -594 526 -406 1076 -637 1741 -733 179 -25 739 -25 918 0 664 96 1213 326 1741 733 148 114 478 444 594 594 405 525 637 1076 733 1741 25 179 25 739 0 918 -96 665 -328 1216 -733 1741 -116 150 -446 480 -594 594 -526 405 -1076 637 -1735 732 -104 15 -681 29 -760 18z m620 -45 c517 -44 1067 -227 1514 -504 388 -240 755 -583 1019 -953 358 -499 568 -1054 637 -1677 21 -184 21 -546 0 -730 -92 -833 -444 -1560 -1037 -2141 -264 -259 -515 -443 -831 -609 -503 -264 -1043 -396 -1627 -396 -584 0 -1124 132 -1627 396 -316 166 -567 350 -831 609 -593 581 -945 1308 -1037 2141 -21 184 -21 546 0 730 69 623 279 1177 637 1677 111 156 200 261 352 416 458 468 1006 785 1631 945 396 102 776 132 1200 96z"/>
 <path d="M3595 7415 c-666 -76 -1266 -324 -1790 -741 -141 -112 -416 -387 -529 -529 -397 -496 -642 -1070 -733 -1715 -25 -179 -25 -721 0 -900 91 -645 336 -1218 733 -1715 113 -141 388 -416 529 -529 497 -397 1070 -642 1715 -733 179 -25 721 -25 900 0 645 91 1218 336 1715 733 141 113 416 388 529 529 397 496 642 1070 733 1715 25 179 25 721 0 900 -91 645 -336 1218 -733 1715 -113 141 -388 416 -529 529 -494 394 -1070 641 -1705 732 -159 22 -670 28 -835 9z m591 -30 c465 -19 999 -173 1428 -411 142 -79 361 -227 491 -330 141 -113 416 -388 529 -529 420 -527 670 -1143 736 -1815 14 -148 14 -492 0 -640 -66 -672 -316 -1288 -736 -1815 -113 -141 -388 -416 -529 -529 -527 -420 -1143 -670 -1815 -736 -148 -14 -492 -14 -640 0 -672 66 -1288 316 -1815 736 -141 113 -416 388 -529 529 -454 569 -714 1257 -744 1967 -37 855 218 1643 744 2303 113 141 388 416 529 529 494 394 1062 636 1690 722 128 17 394 32 485 28 30 -2 109 -6 176 -9z"/>
 <path d="M3620 7309 c-407 -42 -840 -172 -1205 -363 -448 -233 -845 -575 -1151 -988 -346 -468 -564 -1029 -629 -1618 -19 -177 -19 -553 0 -730 74 -675 348 -1307 786 -1815 90 -104 283 -297 384 -383 508 -431 1160 -705 1834 -772 133 -13 519 -13 652 0 674 67 1326 341 1834 772 101 86 294 279 384 383 445 516 723 1168 791 1854 13 133 13 519 0 652 -67 674 -341 1326 -772 1834 -86 101 -279 294 -383 384 -516 445 -1168 723 -1854 791 -122 12 -549 11 -671 -1z m660 -40 c575 -54 1132 -261 1597 -594 174 -125 297 -232 459 -397 160 -165 270 -300 389 -478 387 -580 580 -1286 544 -1991 -35 -690 -271 -1322 -701 -1878 -107 -137 -422 -452 -559 -559 -645 -499 -1411 -742 -2210 -701 -690 35 -1322 271 -1878 701 -137 107 -452 422 -559 559 -607 784 -835 1757 -637 2720 166 807 641 1532 1328 2024 639 458 1430 669 2227 594z"/>
 <path d="M3605 7215 c-1090 -128 -2027 -773 -2528 -1743 -245 -474 -357 -942 -357 -1492 0 -375 45 -668 151 -997 348 -1079 1234 -1902 2329 -2167 425 -102 928 -116 1366 -36 658 119 1288 459 1754 947 506 529 817 1205 890 1932 13 133 13 509 0 642 -64 631 -307 1226 -706 1724 -114 142 -349 378 -489 489 -494 395 -1063 630 -1690 701 -160 18 -564 18 -720 0z m612 -31 c575 -34 1189 -265 1676 -630 1423 -1068 1714 -3080 651 -4497 -1068 -1423 -3080 -1714 -4497 -651 -1423 1068 -1714 3080 -651 4497 573 764 1450 1235 2394 1286 141 8 227 7 427 -5z"/>
 <path d="M3595 7114 c-244 -29 -507 -93 -745 -180 -245 -91 -602 -290 -823 -462 -373 -288 -681 -666 -892 -1097 -229 -465 -325 -880 -325 -1400 0 -520 97 -937 325 -1400 311 -632 798 -1119 1430 -1430 463 -228 880 -325 1400 -325 520 0 937 97 1400 325 632 311 1121 801 1430 1430 229 465 325 880 325 1400 0 404 -60 742 -196 1115 -90 245 -290 602 -461 822 -289 375 -666 681 -1098 893 -353 174 -665 266 -1045 310 -170 19 -557 18 -725 -1z m665 -35 c584 -50 1168 -285 1640 -659 135 -107 403 -375 510 -510 372 -469 600 -1033 660 -1634 14 -140 14 -462 0 -602 -63 -629 -303 -1204 -707 -1691 -106 -128 -331 -348 -462 -452 -473 -376 -1029 -600 -1636 -661 -141 -14 -459 -14 -600 0 -532 53 -1012 228 -1460 530 -267 180 -581 488 -778 763 -317 442 -512 962 -567 1511 -14 140 -14 462 0 602 63 629 303 1204 707 1691 106 128 330 348 463 453 570 453 1289 693 2015 672 55 -2 152 -7 215 -13z"/>
 <path d="M3640 7029 c-145 -15 -368 -59 -526 -104 -1010 -289 -1810 -1089 -2099 -2099 -47 -165 -89 -383 -105 -545 -13 -133 -13 -479 0 -612 123 -1245 1003 -2301 2204 -2644 165 -47 383 -89 545 -105 133 -13 479 -13 612 0 1245 123 2301 1003 2644 2204 47 165 89 383 105 545 13 133 13 479 0 612 -102 1033 -729 1952 -1654 2425 -89 45 -215 103 -280 129 -238 93 -556 169 -815 195 -121 12 -509 11 -631 -1z m665 -45 c1294 -140 2369 -1123 2628 -2404 78 -384 78 -825 0 -1210 -239 -1183 -1180 -2124 -2363 -2363 -384 -78 -826 -78 -1210 0 -1183 239 -2124 1180 -2363 2363 -78 384 -78 826 0 1210 201 998 906 1837 1858 2213 460 182 942 246 1450 191z"/>
 <path d="M3610 6934 c-500 -60 -985 -249 -1390 -543 -682 -494 -1119 -1241 -1215 -2076 -20 -169 -20 -511 0 -680 40 -343 127 -645 279 -960 443 -918 1324 -1543 2341 -1660 169 -20 511 -20 680 0 659 76 1263 362 1739 824 424 412 726 964 840 1536 41 202 56 369 56 600 0 475 -89 874 -289 1290 -445 926 -1325 1552 -2346 1670 -162 19 -536 18 -695 -1z m694 -40 c536 -59 1060 -278 1496 -624 135 -107 353 -325 460 -460 346 -435 560 -947 625 -1496 21 -170 21 -508 0 -679 -79 -666 -368 -1260 -844 -1736 -476 -476 -1074 -766 -1742 -845 -175 -20 -493 -20 -668 0 -552 65 -1064 279 -1501 626 -135 107 -354 326 -459 459 -391 493 -610 1070 -640 1681 -35 735 183 1415 640 1991 106 133 325 352 459 459 623 495 1379 712 2174 624z"/>
 <path d="M3700 6854 c-14 -2 -65 -9 -115 -15 -488 -59 -971 -260 -1387 -575 -133 -101 -421 -389 -522 -522 -308 -406 -487 -828 -572 -1347 -21 -134 -30 -557 -15 -706 58 -551 251 -1037 587 -1481 101 -133 389 -421 522 -522 439 -333 918 -524 1467 -586 116 -13 484 -13 600 0 549 62 1028 253 1467 586 133 101 421 389 522 522 315 416 497 853 577 1387 19 123 19 637 0 760 -80 534 -262 971 -577 1387 -101 133 -389 421 -522 522 -349 265 -752 452 -1153 536 -219 45 -288 52 -574 55 -154 2 -291 2 -305 -1z m550 -45 c563 -51 1120 -288 1559 -665 685 -588 1044 -1419 1000 -2319 -29 -591 -243 -1155 -615 -1625 -87 -109 -345 -367 -454 -454 -826 -655 -1937 -803 -2905 -387 -767 330 -1375 1017 -1605 1815 -128 443 -147 932 -54 1386 148 719 588 1369 1209 1785 552 369 1180 526 1865 464z"/>
 <path d="M3627 6765 c-516 -63 -1016 -273 -1427 -601 -109 -87 -337 -315 -424 -424 -275 -344 -474 -764 -561 -1185 -75 -363 -75 -797 0 -1160 87 -421 286 -841 561 -1185 87 -109 315 -337 424 -424 427 -340 929 -547 1472 -606 125 -13 461 -13 586 0 543 59 1045 266 1472 606 109 87 337 315 424 424 275 344 474 764 561 1185 75 363 75 797 0 1160 -87 421 -286 841 -561 1185 -87 109 -315 337 -424 424 -415 331 -913 540 -1435 601 -159 18 -515 18 -668 0z m623 -36 c437 -43 859 -193 1240 -443 310 -203 624 -525 818 -836 258 -413 396 -850 421 -1325 40 -794 -241 -1534 -799 -2096 -365 -368 -788 -611 -1285 -739 -361 -92 -769 -108 -1155 -44 -981 163 -1830 892 -2150 1846 -99 293 -141 559 -141 883 0 259 23 454 81 680 128 498 371 920 739 1285 596 591 1387 871 2231 789z"/>
 <path d="M3630 6676 c-796 -101 -1496 -532 -1935 -1191 -228 -342 -362 -688 -432 -1117 -25 -147 -25 -649 0 -796 83 -504 269 -931 573 -1312 87 -109 305 -327 414 -414 381 -304 808 -490 1312 -573 147 -25 649 -25 796 0 504 83 931 269 1312 573 109 87 327 305 414 414 304 381 490 808 573 1312 25 147 25 649 0 796 -83 504 -269 931 -573 1312 -87 109 -305 327 -414 414 -380 302 -812 492 -1307 572 -134 22 -589 28 -733 10z m645 -42 c875 -100 1657 -639 2064 -1424 184 -354 280 -706 299 -1091 25 -501 -71 -949 -297 -1385 -370 -713 -1059 -1235 -1839 -1394 -376 -76 -820 -68 -1177 21 -487 122 -908 361 -1261 713 -473 474 -750 1091 -782 1747 -39 780 236 1498 782 2045 588 587 1381 863 2211 768z"/>
 <path d="M3700 6604 c-644 -77 -1175 -328 -1610 -764 -403 -403 -649 -890 -747 -1475 -26 -158 -26 -631 0 -790 97 -584 345 -1073 747 -1475 402 -402 891 -650 1475 -747 88 -14 166 -18 395 -18 229 0 307 4 395 18 584 97 1073 345 1475 747 402 402 650 891 747 1475 26 159 26 631 0 790 -97 585 -344 1072 -747 1475 -396 397 -874 642 -1445 741 -97 17 -170 22 -385 24 -146 2 -281 1 -300 -1z m575 -50 c471 -53 934 -249 1315 -555 526 -422 873 -1044 955 -1714 33 -267 17 -612 -41 -875 -84 -378 -269 -765 -515 -1070 -423 -526 -1044 -873 -1714 -955 -170 -21 -460 -21 -630 0 -477 59 -940 254 -1315 556 -526 423 -873 1044 -955 1714 -21 170 -21 460 0 630 71 579 332 1112 745 1525 207 207 419 358 690 494 456 227 939 310 1465 250z"/>
 <path d="M3665 6528 c-356 -40 -750 -177 -1055 -368 -323 -201 -629 -507 -830 -830 -195 -312 -329 -702 -369 -1072 -14 -125 -14 -441 0 -566 63 -581 319 -1113 738 -1533 369 -368 803 -601 1311 -703 178 -35 293 -46 505 -46 212 0 327 11 505 46 508 102 942 335 1311 703 368 369 601 803 703 1311 35 178 46 293 46 505 0 212 -11 327 -46 505 -102 508 -335 942 -703 1311 -420 419 -951 675 -1533 738 -115 13 -469 12 -583 -1z m610 -44 c740 -91 1395 -500 1807 -1129 274 -417 409 -874 409 -1380 0 -416 -86 -780 -272 -1145 -346 -681 -1006 -1185 -1749 -1334 -316 -64 -694 -64 -1010 0 -743 149 -1403 653 -1749 1334 -186 365 -272 728 -272 1145 0 515 137 971 421 1397 532 802 1460 1229 2415 1112z"/>
 <path d="M3705 6454 c-570 -60 -1109 -318 -1514 -725 -365 -367 -598 -820 -693 -1346 -20 -114 -23 -159 -23 -413 0 -254 3 -299 23 -413 95 -526 328 -979 693 -1346 369 -370 826 -608 1356 -703 114 -20 159 -23 413 -23 318 0 417 12 666 80 839 231 1508 900 1739 1739 68 249 80 348 80 666 0 318 -12 417 -80 666 -230 839 -900 1509 -1739 1738 -231 64 -342 78 -626 81 -140 2 -273 1 -295 -1z m441 -39 c380 -19 816 -167 1156 -391 204 -135 439 -350 586 -537 700 -888 700 -2146 0 -3034 -147 -187 -382 -402 -586 -537 -806 -531 -1878 -531 -2684 0 -204 135 -439 350 -586 537 -700 888 -700 2146 0 3034 86 110 276 301 389 393 331 267 714 439 1136 510 131 23 349 39 438 34 28 -2 95 -6 151 -9z"/>
 <path d="M3720 6384 c-362 -43 -688 -151 -979 -323 -484 -287 -844 -714 -1042 -1239 -45 -118 -99 -321 -126 -467 -26 -145 -26 -625 0 -770 57 -317 157 -592 306 -844 324 -547 836 -940 1441 -1107 248 -68 332 -78 650 -78 318 0 402 10 650 78 605 167 1117 560 1441 1107 116 196 195 387 254 612 63 246 70 302 70 617 0 315 -7 371 -70 617 -140 538 -458 1006 -912 1341 -297 218 -639 363 -1026 434 -90 16 -163 21 -367 23 -140 2 -271 1 -290 -1z m515 -45 c607 -62 1199 -387 1590 -873 217 -270 376 -589 459 -921 85 -338 92 -722 20 -1065 -129 -612 -494 -1147 -1029 -1505 -114 -77 -355 -197 -496 -249 -504 -185 -1114 -185 -1618 0 -141 52 -382 172 -496 249 -534 357 -892 880 -1029 1500 -64 290 -64 700 0 990 159 718 624 1316 1274 1639 421 209 844 284 1325 235z"/>
 <path d="M3645 6303 c-150 -20 -386 -82 -531 -138 -799 -313 -1370 -1041 -1478 -1883 -21 -162 -21 -462 0 -624 121 -945 820 -1732 1748 -1968 204 -52 357 -70 586 -70 229 0 382 18 586 70 833 212 1482 861 1694 1694 52 204 70 357 70 586 0 229 -18 382 -70 586 -187 735 -711 1327 -1424 1609 -149 58 -383 118 -544 139 -156 20 -484 20 -637 -1z m655 -44 c927 -131 1685 -815 1915 -1727 90 -355 90 -769 0 -1124 -209 -828 -855 -1474 -1683 -1683 -355 -90 -769 -90 -1124 0 -828 209 -1474 855 -1683 1683 -90 355 -90 769 0 1124 50 200 124 387 217 553 480 853 1398 1310 2358 1174z"/>
 <path d="M3720 6244 c-530 -66 -1000 -292 -1366 -658 -332 -333 -545 -742 -636 -1221 -20 -107 -23 -151 -23 -395 0 -302 11 -392 75 -621 215 -762 817 -1364 1579 -1579 228 -64 319 -75 621 -75 247 0 288 3 400 24 873 164 1563 789 1800 1630 64 229 75 319 75 621 0 302 -11 392 -75 621 -215 762 -818 1364 -1579 1579 -214 60 -313 72 -586 75 -137 2 -266 1 -285 -1z m510 -45 c542 -58 1072 -340 1436 -761 360 -419 546 -919 546 -1468 0 -549 -186 -1049 -546 -1468 -365 -423 -880 -696 -1441 -762 -55 -7 -170 -12 -255 -12 -260 0 -484 36 -722 118 -821 281 -1407 1007 -1508 1869 -15 128 -15 382 0 510 53 452 235 865 534 1213 401 465 973 742 1601 775 81 5 239 -2 355 -14z"/>
 <path d="M3631 6160 c-727 -113 -1346 -570 -1662 -1225 -99 -206 -150 -364 -196 -605 -26 -137 -26 -593 0 -730 46 -241 97 -400 196 -605 320 -660 944 -1118 1670 -1225 187 -27 465 -27 652 0 570 84 1093 392 1442 850 171 224 314 520 381 789 55 215 61 269 61 556 0 287 -6 341 -61 556 -48 194 -148 432 -251 599 -217 352 -538 647 -899 828 -193 96 -387 161 -609 204 -163 31 -549 35 -724 8z m628 -36 c961 -125 1737 -904 1866 -1872 21 -151 21 -423 0 -574 -129 -971 -902 -1744 -1873 -1873 -151 -21 -423 -21 -574 0 -971 129 -1744 902 -1873 1873 -21 151 -21 423 0 574 73 554 365 1067 804 1417 469 373 1049 533 1650 455z"/>
 <path d="M3645 6100 c-603 -92 -1131 -430 -1478 -948 -131 -195 -259 -505 -306 -737 -32 -160 -41 -258 -41 -450 0 -355 65 -635 220 -950 114 -232 236 -399 427 -586 336 -328 744 -529 1211 -593 148 -21 436 -21 584 0 620 86 1157 424 1511 952 169 252 297 603 337 922 13 109 13 411 0 520 -49 395 -207 770 -457 1087 -86 109 -279 296 -393 380 -296 218 -616 351 -975 404 -173 25 -469 25 -640 -1z m570 -31 c298 -33 596 -137 865 -302 203 -125 459 -362 593 -548 219 -304 352 -640 397 -1004 14 -116 14 -374 0 -490 -45 -364 -177 -700 -397 -1004 -92 -129 -322 -358 -453 -453 -382 -276 -790 -409 -1250 -409 -460 0 -868 133 -1250 409 -131 95 -361 324 -453 453 -219 304 -353 641 -397 1003 -14 114 -14 378 0 492 44 362 178 699 397 1003 92 129 322 358 453 453 449 323 950 457 1495 397z"/>
 <path d="M3700 6039 c-467 -60 -902 -278 -1231 -616 -324 -334 -522 -744 -578 -1203 -14 -109 -14 -401 0 -510 48 -388 206 -760 452 -1065 83 -102 249 -263 355 -344 293 -222 645 -365 1012 -410 109 -14 401 -14 510 0 609 75 1147 409 1492 924 82 123 189 345 237 490 74 226 101 405 101 660 0 94 -5 209 -11 255 -87 704 -517 1308 -1154 1621 -213 104 -431 170 -665 198 -98 13 -424 12 -520 0z m545 -45 c444 -60 841 -259 1166 -583 164 -165 277 -319 378 -516 223 -432 283 -949 165 -1419 -153 -614 -590 -1134 -1162 -1385 -416 -183 -883 -223 -1316 -115 -373 93 -682 269 -957 543 -272 273 -450 588 -544 961 -77 307 -77 664 0 971 95 374 272 687 544 960 463 462 1080 670 1726 583z"/>
 <path d="M3667 5974 c-881 -128 -1588 -839 -1711 -1723 -21 -146 -21 -426 0 -572 124 -889 834 -1599 1723 -1723 146 -21 426 -21 572 0 889 124 1599 834 1723 1723 21 146 21 426 0 572 -124 889 -834 1599 -1723 1723 -139 20 -447 19 -584 0z m421 -24 c723 -49 1351 -473 1667 -1125 136 -280 196 -544 196 -860 0 -316 -60 -580 -196 -860 -200 -413 -517 -730 -930 -930 -987 -478 -2169 -63 -2650 930 -136 280 -196 544 -196 860 0 316 60 580 196 860 200 413 517 730 930 930 227 110 477 178 715 194 63 5 117 9 120 9 3 1 70 -3 148 -8z"/>
 <path d="M3672 5904 c-654 -105 -1197 -509 -1478 -1099 -66 -139 -116 -289 -151 -452 -26 -121 -28 -142 -28 -388 0 -246 2 -267 28 -388 169 -787 748 -1366 1534 -1534 121 -26 143 -27 388 -27 245 0 267 1 388 27 389 83 720 261 993 532 279 278 456 606 541 1002 26 121 28 142 28 388 0 246 -2 267 -28 388 -168 785 -748 1366 -1529 1533 -109 23 -151 27 -358 30 -175 2 -259 -1 -328 -12z m518 -319 c519 -74 972 -392 1218 -855 416 -783 135 -1743 -640 -2187 -779 -447 -1773 -170 -2225 619 -274 478 -284 1072 -27 1558 326 615 995 961 1674 865z"/>
 <path d="M2997 4289 c-37 -21 -47 -63 -47 -189 l0 -120 30 0 30 0 1 93 c0 114 14 158 52 171 21 8 35 7 55 -5 42 -23 52 -54 52 -161 l0 -98 30 0 30 0 0 139 c0 77 3 146 6 155 5 13 -1 16 -25 16 -19 0 -34 -6 -37 -15 -5 -13 -10 -12 -31 5 -28 22 -114 27 -146 9z"/>
 <path d="M3364 4282 c-41 -26 -64 -78 -64 -147 0 -61 14 -97 54 -134 34 -32 119 -41 164 -17 l32 17 0 -86 0 -85 30 0 30 0 0 214 c0 118 3 221 6 230 5 13 -1 16 -30 16 -27 0 -36 -4 -36 -17 0 -14 -2 -14 -20 2 -31 28 -126 32 -166 7z m151 -56 c46 -46 45 -149 -2 -186 -56 -44 -122 -14 -144 64 -28 101 78 190 146 122z"/>
 <path d="M3922 4280 c-50 -31 -72 -75 -72 -145 0 -70 22 -114 72 -146 48 -30 156 -24 193 11 41 38 55 73 55 137 0 104 -58 163 -160 163 -37 0 -66 -6 -88 -20z m141 -51 c77 -60 39 -209 -53 -209 -43 0 -75 29 -90 80 -20 71 28 150 90 150 15 0 39 -9 53 -21z"/>
 <path d="M4350 4285 c-83 -38 -123 -107 -123 -210 0 -109 57 -195 148 -225 43 -14 179 -10 196 7 17 17 1 56 -19 48 -10 -4 -39 -9 -67 -12 -182 -17 -262 219 -112 331 29 21 116 28 169 13 24 -6 28 -4 34 18 4 14 3 29 0 33 -4 3 -48 8 -99 9 -68 3 -101 -1 -127 -12z"/>
 <path d="M4635 4275 c-35 -34 -35 -106 -1 -140 27 -26 83 -45 139 -45 43 0 49 -18 17 -50 -22 -22 -88 -27 -122 -9 -22 12 -23 12 -32 -17 -5 -18 -1 -24 25 -33 45 -15 125 -14 158 4 40 20 49 53 53 188 l4 117 -27 0 c-15 0 -29 -5 -31 -12 -3 -8 -11 -7 -28 5 -16 11 -44 17 -78 17 -43 0 -58 -5 -77 -25z m150 -50 c18 -17 25 -35 25 -60 l0 -37 -42 7 c-81 14 -112 48 -83 91 21 32 68 32 100 -1z"/>
 <path d="M4968 4293 c-19 -5 -23 -29 -9 -52 6 -10 13 -11 29 -2 29 16 87 14 102 -4 20 -24 7 -49 -42 -75 -71 -39 -88 -58 -88 -99 1 -62 38 -91 117 -91 59 0 77 11 69 38 -6 18 -13 20 -54 15 -37 -4 -51 -2 -62 12 -19 23 -4 45 46 68 64 31 84 55 84 103 0 35 -5 47 -31 68 -25 22 -40 26 -87 25 -31 -1 -65 -3 -74 -6z"/>
 <path d="M5272 4277 c-20 -21 -22 -34 -22 -135 l0 -112 -25 0 c-20 0 -25 -5 -25 -25 0 -20 5 -25 25 -25 22 0 25 -4 25 -39 0 -26 5 -41 16 -45 36 -14 44 -7 44 39 l0 45 45 0 c41 0 45 2 45 25 0 23 -4 25 -46 25 l-46 0 4 100 c3 106 9 120 54 120 20 0 34 17 34 41 0 5 -24 9 -53 9 -43 0 -58 -5 -75 -23z"/>
 <path d="M2510 4282 c0 -4 32 -95 70 -202 39 -107 70 -202 70 -210 0 -25 21 -40 55 -40 36 0 55 15 55 45 0 11 32 107 70 214 39 106 70 195 70 198 0 2 -16 3 -37 1 -34 -3 -37 -6 -58 -63 l-23 -60 -80 -3 -80 -3 -22 66 c-21 63 -23 65 -56 65 -19 0 -34 -3 -34 -8z m250 -180 c0 -26 -59 -175 -64 -162 -8 21 -56 163 -56 167 0 2 27 3 60 3 33 0 60 -4 60 -8z"/>
 <path d="M3710 4135 l0 -155 30 0 30 0 0 155 0 155 -30 0 -30 0 0 -155z"/>
 <path d="M3704 3906 c-12 -31 1 -51 33 -54 27 -3 33 1 39 22 3 14 3 30 -1 35 -9 16 -65 13 -71 -3z"/>
 <path d="M2597 3823 c-16 -15 -6 -53 18 -69 14 -9 23 -19 21 -22 -3 -3 -21 7 -41 22 -39 30 -68 31 -73 3 -8 -39 51 -79 151 -102 l62 -15 -61 5 c-63 5 -114 21 -114 37 0 4 -7 8 -15 8 -8 0 -19 9 -25 21 -18 32 -54 21 -58 -18 -3 -29 1 -34 65 -70 67 -37 69 -38 173 -37 111 0 136 8 208 62 57 44 31 93 -32 57 l-31 -18 24 26 c25 28 23 57 -5 57 -9 0 -46 -13 -80 -30 -54 -25 -69 -28 -101 -21 l-38 9 44 1 c79 2 158 55 136 91 -10 16 -48 11 -80 -10 -38 -25 -71 -25 -92 0 -17 20 -44 26 -56 13z m223 -153 c-14 -11 -36 -20 -49 -20 -31 0 -24 6 25 24 52 19 53 19 24 -4z"/>
 </g>
<g id="layer102" fill="#686868" stroke="none">
 <path d="M3605 7909 c-700 -70 -1356 -311 -1910 -702 -961 -680 -1566 -1734 -1665 -2904 -16 -186 -8 -665 14 -823 66 -472 180 -853 371 -1245 468 -956 1297 -1682 2312 -2021 220 -74 537 -143 803 -176 142 -18 738 -18 880 0 659 81 1239 295 1772 653 903 606 1528 1586 1692 2654 37 235 46 363 46 625 0 262 -9 390 -46 625 -193 1259 -1015 2369 -2169 2930 -397 193 -783 308 -1250 372 -131 18 -712 26 -850 12z m805 -333 c605 -79 1171 -298 1657 -643 758 -537 1281 -1341 1462 -2248 56 -276 65 -381 65 -715 0 -340 -9 -442 -69 -735 -221 -1085 -935 -2012 -1935 -2513 -367 -184 -755 -302 -1185 -359 -184 -24 -686 -24 -870 0 -617 82 -1174 298 -1662 644 -751 532 -1276 1334 -1458 2228 -60 293 -69 395 -69 735 0 340 9 442 69 735 182 894 707 1696 1458 2228 162 115 301 198 492 292 426 210 840 324 1345 369 108 9 581 -3 700 -18z"/>
 <path d="M3665 7514 c-16 -2 -73 -9 -125 -15 -578 -64 -1152 -286 -1650 -638 -314 -222 -649 -565 -869 -891 -318 -470 -504 -958 -588 -1541 -25 -179 -25 -739 0 -918 84 -583 270 -1071 588 -1541 220 -326 555 -669 869 -891 487 -345 1003 -549 1611 -636 179 -25 739 -25 918 0 583 84 1071 270 1541 588 326 220 669 555 891 869 345 487 549 1003 636 1611 25 179 25 739 0 918 -119 827 -467 1519 -1048 2086 -556 542 -1224 867 -2014 981 -104 15 -681 29 -760 18z m620 -45 c604 -52 1200 -273 1715 -638 228 -161 523 -441 703 -666 430 -538 689 -1175 757 -1865 14 -148 14 -512 0 -660 -83 -842 -444 -1593 -1051 -2185 -583 -568 -1308 -905 -2119 -985 -148 -14 -512 -14 -660 0 -811 80 -1536 417 -2119 985 -607 592 -968 1343 -1051 2185 -14 148 -14 512 0 660 109 1103 708 2066 1658 2662 629 396 1390 573 2167 507z"/>
 <path d="M3593 7414 c-654 -71 -1266 -325 -1788 -740 -141 -113 -416 -388 -529 -529 -419 -527 -671 -1137 -741 -1801 -19 -181 -19 -547 0 -728 70 -664 322 -1274 741 -1801 113 -141 388 -416 529 -529 527 -419 1137 -671 1801 -741 181 -19 547 -19 728 0 664 70 1272 321 1801 741 140 111 415 386 529 529 419 526 671 1137 741 1801 19 181 19 547 0 728 -70 664 -322 1275 -741 1801 -114 143 -389 418 -529 529 -529 420 -1137 671 -1801 741 -172 18 -571 18 -741 -1z m597 -29 c477 -21 1014 -179 1455 -430 283 -160 499 -327 745 -574 176 -177 296 -322 420 -506 344 -513 542 -1112 568 -1728 38 -855 -216 -1638 -744 -2302 -113 -141 -388 -416 -529 -529 -664 -528 -1448 -782 -2303 -744 -715 31 -1393 287 -1967 744 -141 113 -416 388 -529 529 -456 574 -713 1253 -744 1967 -38 855 216 1639 744 2303 113 141 388 416 529 529 489 389 1045 630 1658 717 145 21 418 38 517 33 30 -2 111 -6 180 -9z"/>
 <path d="M3585 7304 c-609 -69 -1187 -305 -1677 -684 -141 -109 -385 -343 -496 -475 -440 -523 -703 -1136 -777 -1805 -19 -177 -19 -553 0 -730 113 -1027 688 -1937 1571 -2488 407 -253 902 -423 1394 -477 177 -19 553 -19 730 0 670 74 1284 338 1805 777 125 106 345 332 449 463 374 471 601 996 699 1615 19 118 21 177 21 475 0 298 -2 357 -21 475 -96 610 -311 1112 -679 1590 -118 153 -426 460 -582 580 -500 385 -1073 617 -1692 685 -169 19 -578 18 -745 -1z m536 -24 c704 -37 1324 -267 1879 -696 148 -114 460 -426 574 -574 362 -468 582 -983 666 -1559 62 -429 33 -934 -76 -1331 -122 -441 -312 -820 -590 -1180 -118 -153 -427 -461 -582 -580 -505 -389 -1063 -610 -1712 -681 -135 -14 -495 -14 -630 0 -655 71 -1210 293 -1720 687 -148 114 -460 426 -574 574 -495 640 -736 1404 -695 2201 35 689 269 1318 695 1869 114 148 426 460 574 574 544 421 1180 660 1850 695 80 5 150 9 155 9 6 1 89 -3 186 -8z"/>
 <path d="M3600 7214 c-505 -63 -944 -216 -1358 -475 -732 -456 -1264 -1210 -1451 -2054 -55 -249 -65 -361 -65 -705 0 -289 2 -341 22 -470 81 -513 251 -950 533 -1365 218 -322 532 -636 854 -854 415 -282 852 -452 1365 -533 129 -20 181 -22 470 -22 344 0 456 10 705 65 1097 243 2000 1046 2369 2108 124 358 176 672 176 1071 0 547 -112 1017 -354 1485 -333 646 -841 1139 -1499 1455 -287 138 -582 228 -922 281 -183 28 -665 36 -845 13z m725 -40 c605 -65 1174 -301 1660 -690 61 -49 175 -154 255 -234 526 -525 838 -1172 925 -1915 22 -186 22 -524 0 -710 -72 -621 -303 -1174 -691 -1660 -113 -141 -348 -376 -489 -489 -585 -468 -1268 -707 -2015 -707 -747 0 -1430 239 -2015 707 -141 113 -376 348 -489 489 -468 585 -707 1268 -707 2015 0 747 239 1430 707 2015 113 141 348 376 489 489 678 542 1504 782 2370 690z"/>
 <path d="M3595 7114 c-244 -29 -506 -93 -745 -180 -52 -20 -180 -77 -285 -129 -628 -309 -1121 -802 -1430 -1430 -228 -464 -325 -880 -325 -1400 0 -520 97 -936 325 -1400 309 -628 802 -1121 1430 -1430 464 -228 880 -325 1400 -325 520 0 936 97 1400 325 628 309 1121 802 1430 1430 228 464 325 880 325 1400 0 520 -97 936 -325 1400 -309 628 -802 1121 -1430 1430 -351 173 -665 266 -1045 310 -170 19 -557 18 -725 -1z m670 -35 c671 -61 1322 -354 1818 -817 512 -478 843 -1087 957 -1762 32 -191 41 -305 41 -525 0 -220 -9 -334 -41 -525 -100 -588 -376 -1151 -777 -1582 -190 -204 -356 -345 -583 -496 -419 -280 -901 -451 -1415 -502 -141 -14 -459 -14 -600 0 -686 69 -1322 355 -1818 818 -568 531 -910 1219 -987 1986 -14 140 -14 462 0 602 84 845 495 1600 1163 2140 128 103 359 252 512 331 543 278 1118 388 1730 332z"/>
 <path d="M3640 7029 c-539 -55 -1081 -270 -1523 -603 -454 -342 -799 -797 -1010 -1331 -87 -221 -140 -421 -184 -695 -26 -166 -26 -684 0 -850 44 -274 97 -474 184 -695 319 -809 955 -1440 1763 -1748 358 -136 694 -197 1095 -197 401 0 737 61 1095 197 808 308 1444 939 1763 1748 87 221 140 421 184 695 26 166 26 684 0 850 -44 274 -97 474 -184 695 -328 830 -977 1461 -1821 1771 -208 76 -495 140 -726 163 -126 13 -511 12 -636 0z m665 -45 c532 -58 1047 -262 1475 -585 674 -509 1100 -1251 1195 -2083 21 -182 21 -500 0 -682 -95 -832 -521 -1574 -1195 -2083 -354 -267 -774 -456 -1210 -544 -385 -78 -825 -78 -1210 0 -804 162 -1534 668 -1965 1363 -304 491 -456 1025 -456 1605 0 400 66 755 207 1110 439 1105 1483 1857 2659 1914 177 8 322 4 500 -15z"/>
 <path d="M3620 6935 c-565 -68 -1075 -282 -1520 -635 -135 -107 -353 -325 -460 -460 -353 -444 -570 -965 -634 -1520 -21 -175 -21 -513 -1 -685 65 -562 280 -1078 635 -1525 107 -135 325 -353 460 -460 449 -357 959 -569 1530 -635 162 -19 508 -19 670 0 571 66 1081 278 1530 635 135 107 353 325 460 460 304 382 506 818 599 1290 69 350 69 800 0 1150 -93 472 -295 908 -599 1290 -107 135 -325 353 -460 460 -446 354 -962 569 -1525 635 -158 18 -534 18 -685 0z m684 -41 c537 -59 1060 -277 1496 -624 135 -107 353 -325 460 -460 290 -365 495 -801 585 -1244 40 -199 56 -363 56 -591 0 -477 -93 -876 -301 -1300 -141 -287 -324 -540 -559 -776 -477 -476 -1073 -766 -1742 -845 -175 -20 -493 -20 -668 0 -553 66 -1064 278 -1501 626 -135 107 -353 325 -460 460 -346 436 -560 946 -625 1496 -21 170 -21 508 0 678 65 550 279 1060 625 1496 107 135 326 353 460 460 623 495 1379 712 2174 624z"/>
 <path d="M3658 6849 c-521 -55 -1010 -249 -1443 -573 -159 -119 -432 -392 -551 -551 -327 -437 -513 -907 -574 -1450 -13 -116 -13 -484 0 -600 61 -543 247 -1013 574 -1450 119 -159 392 -432 551 -551 438 -328 921 -518 1455 -574 122 -13 468 -13 590 0 534 56 1017 246 1455 574 159 119 432 392 551 551 327 437 513 907 574 1450 13 116 13 484 0 600 -61 543 -247 1013 -574 1450 -119 159 -392 432 -551 551 -439 328 -921 518 -1455 574 -111 11 -491 11 -602 -1z m537 -34 c211 -13 503 -75 722 -154 419 -151 737 -354 1059 -675 240 -241 388 -443 534 -731 204 -403 301 -815 301 -1280 0 -637 -190 -1205 -575 -1720 -119 -159 -392 -432 -551 -551 -514 -385 -1085 -576 -1720 -576 -635 0 -1206 191 -1720 576 -159 119 -432 392 -551 551 -315 421 -498 875 -559 1391 -20 169 -20 489 0 658 61 516 244 970 559 1391 119 159 392 432 551 551 463 346 994 543 1549 573 138 8 198 7 401 -4z"/>
 <path d="M3705 6774 c-16 -2 -84 -11 -150 -20 -472 -64 -966 -279 -1355 -590 -120 -96 -332 -310 -430 -434 -312 -393 -507 -842 -587 -1350 -26 -164 -26 -644 0 -810 95 -614 365 -1150 796 -1581 430 -429 967 -700 1576 -795 173 -27 647 -27 820 0 609 95 1146 366 1576 795 431 431 701 967 796 1581 26 165 26 645 0 810 -96 617 -367 1153 -801 1585 -153 152 -253 235 -426 350 -334 223 -729 376 -1140 441 -100 15 -595 29 -675 18z m470 -39 c523 -29 1087 -251 1525 -601 109 -87 337 -315 424 -424 366 -458 576 -1011 605 -1588 30 -606 -125 -1175 -454 -1672 -114 -172 -197 -273 -350 -426 -491 -494 -1122 -778 -1810 -813 -802 -41 -1547 246 -2110 813 -153 153 -236 254 -350 426 -330 497 -484 1067 -454 1673 29 578 239 1129 605 1587 87 109 315 337 424 424 454 363 1008 575 1580 606 132 7 161 6 365 -5z"/>
 <path d="M3630 6675 c-1247 -151 -2229 -1138 -2375 -2385 -19 -161 -19 -479 0 -640 72 -615 339 -1164 780 -1605 441 -441 990 -708 1605 -780 161 -19 479 -19 640 0 1176 138 2130 1022 2354 2183 39 203 49 339 43 595 -7 306 -42 517 -128 778 -334 1010 -1215 1731 -2269 1854 -152 18 -502 18 -650 0z m528 -30 c509 -28 1060 -244 1482 -581 109 -87 327 -305 414 -414 531 -666 717 -1543 501 -2368 -91 -346 -273 -706 -501 -992 -87 -109 -305 -327 -414 -414 -440 -351 -980 -557 -1538 -585 -665 -33 -1305 172 -1822 585 -109 87 -327 305 -414 414 -531 666 -717 1543 -501 2368 91 346 273 706 501 992 87 109 305 327 414 414 360 288 801 483 1255 557 135 21 366 38 470 32 33 -1 102 -5 153 -8z"/>
 <path d="M3700 6604 c-384 -46 -725 -153 -1025 -321 -650 -366 -1110 -970 -1284 -1686 -58 -237 -66 -316 -66 -627 0 -311 8 -390 66 -627 232 -958 984 -1710 1942 -1942 237 -58 316 -66 627 -66 311 0 390 8 627 66 958 233 1709 984 1942 1942 58 237 66 316 66 627 0 309 -8 385 -65 625 -225 945 -983 1709 -1925 1941 -224 55 -323 66 -605 69 -146 2 -281 1 -300 -1z m575 -50 c313 -35 652 -143 930 -297 663 -365 1138 -997 1299 -1727 78 -352 78 -768 0 -1120 -161 -730 -636 -1362 -1299 -1727 -276 -152 -607 -258 -930 -298 -170 -21 -460 -21 -630 0 -834 103 -1564 599 -1972 1340 -152 276 -258 607 -298 930 -21 170 -21 460 0 630 122 986 796 1821 1732 2145 378 131 754 171 1168 124z"/>
 <path d="M3665 6528 c-354 -40 -752 -179 -1059 -370 -316 -197 -627 -508 -824 -824 -196 -314 -331 -707 -371 -1076 -14 -125 -14 -441 0 -566 40 -369 175 -762 371 -1076 197 -316 508 -627 824 -824 314 -196 707 -331 1076 -371 125 -14 441 -14 566 0 369 40 762 175 1076 371 316 197 627 508 824 824 196 314 331 707 371 1076 14 125 14 441 0 566 -40 369 -175 762 -371 1076 -197 316 -508 627 -824 824 -314 196 -707 331 -1076 371 -115 13 -469 12 -583 -1z m610 -44 c454 -53 876 -229 1255 -522 111 -86 339 -314 422 -422 362 -469 539 -984 539 -1565 0 -580 -178 -1096 -539 -1565 -83 -108 -311 -336 -422 -422 -466 -360 -984 -539 -1565 -539 -580 0 -1098 179 -1565 539 -109 85 -337 313 -422 422 -244 316 -412 674 -488 1040 -69 337 -69 713 0 1050 76 366 243 722 488 1040 83 108 311 336 422 422 548 424 1189 602 1875 522z"/>
 <path d="M3705 6454 c-474 -50 -940 -243 -1310 -541 -120 -97 -316 -296 -407 -413 -250 -323 -415 -698 -490 -1117 -20 -114 -23 -159 -23 -413 0 -254 3 -299 23 -413 78 -434 253 -822 519 -1152 97 -120 296 -316 413 -407 323 -249 699 -415 1117 -490 114 -20 159 -23 413 -23 254 0 299 3 413 23 418 75 794 241 1117 490 117 91 316 287 413 407 267 330 441 717 519 1152 20 114 23 159 23 413 0 254 -3 299 -23 413 -75 419 -240 794 -490 1117 -91 117 -287 316 -407 413 -329 265 -718 441 -1146 517 -102 19 -169 23 -379 25 -140 2 -273 1 -295 -1z m441 -39 c462 -24 967 -223 1349 -532 623 -504 956 -1250 914 -2052 -36 -689 -367 -1332 -914 -1774 -891 -720 -2179 -720 -3070 0 -623 504 -956 1250 -914 2052 55 1040 787 1950 1791 2225 220 60 526 100 693 90 28 -2 95 -6 151 -9z"/>
 <path d="M3715 6384 c-88 -10 -276 -46 -383 -75 -819 -217 -1484 -882 -1701 -1701 -67 -251 -76 -326 -76 -638 0 -312 9 -387 76 -638 219 -828 893 -1495 1724 -1707 236 -60 321 -70 615 -70 294 0 379 10 615 70 681 174 1264 654 1572 1295 94 195 159 399 205 645 20 107 23 151 23 405 0 312 -9 387 -76 638 -217 819 -882 1485 -1701 1701 -233 62 -321 73 -598 76 -140 2 -273 1 -295 -1z m520 -45 c605 -62 1199 -387 1589 -870 212 -263 375 -588 456 -909 208 -820 -28 -1678 -625 -2275 -304 -304 -686 -522 -1095 -625 -820 -208 -1678 28 -2275 625 -484 484 -737 1149 -694 1825 21 339 96 619 245 920 233 469 605 841 1074 1074 421 209 844 284 1325 235z"/>
 <path d="M3645 6303 c-226 -30 -522 -121 -727 -224 -451 -226 -831 -606 -1057 -1057 -106 -211 -195 -504 -225 -740 -21 -162 -21 -462 0 -624 108 -843 676 -1566 1478 -1883 149 -58 383 -118 544 -139 162 -21 462 -21 624 0 699 90 1334 505 1703 1115 121 199 206 403 265 633 52 204 70 357 70 586 0 229 -18 382 -70 586 -187 735 -711 1327 -1424 1609 -149 58 -383 118 -544 139 -156 20 -484 20 -637 -1z m657 -44 c922 -130 1676 -809 1912 -1722 90 -347 91 -774 1 -1129 -208 -826 -848 -1467 -1678 -1682 -348 -90 -786 -90 -1134 0 -830 215 -1470 856 -1678 1682 -90 355 -89 782 1 1129 135 523 436 971 869 1293 490 365 1091 516 1707 429z"/>
 <path d="M3665 6234 c-260 -35 -494 -108 -729 -227 -608 -308 -1046 -871 -1196 -1538 -67 -299 -67 -699 0 -998 194 -864 867 -1537 1731 -1731 299 -67 699 -67 998 0 667 150 1230 588 1538 1196 96 189 162 379 202 579 31 153 41 264 41 455 0 96 -5 216 -10 265 -58 507 -291 987 -654 1351 -364 363 -844 596 -1351 654 -124 14 -449 11 -570 -6z m570 -35 c950 -109 1743 -838 1934 -1779 30 -149 43 -282 43 -450 0 -302 -49 -562 -159 -835 -208 -518 -614 -951 -1118 -1191 -302 -144 -625 -216 -965 -216 -259 0 -483 36 -722 118 -753 257 -1320 899 -1477 1674 -59 289 -59 611 0 900 157 775 726 1420 1477 1674 320 109 647 144 987 105z"/>
 <path d="M3633 6160 c-965 -146 -1721 -906 -1863 -1869 -27 -187 -27 -465 0 -652 142 -966 903 -1727 1869 -1869 187 -27 465 -27 652 0 870 128 1582 759 1815 1609 101 367 101 805 0 1172 -233 850 -945 1481 -1815 1609 -181 27 -482 26 -658 0z m623 -36 c879 -114 1613 -774 1825 -1638 44 -183 60 -319 60 -521 0 -202 -16 -338 -60 -521 -192 -782 -813 -1403 -1595 -1595 -183 -44 -319 -60 -521 -60 -351 0 -653 69 -960 220 -651 321 -1098 940 -1200 1665 -21 146 -21 436 0 582 68 480 281 910 620 1249 483 483 1148 708 1831 619z"/>
 <path d="M3670 6104 c-372 -54 -725 -203 -1025 -433 -86 -66 -277 -253 -348 -341 -198 -245 -351 -557 -422 -855 -75 -316 -75 -694 0 -1010 71 -298 224 -610 422 -855 71 -88 262 -275 348 -341 241 -185 536 -327 820 -394 316 -75 694 -75 1010 0 284 67 579 209 820 394 86 66 277 253 348 341 198 245 351 557 422 855 75 316 75 694 0 1010 -71 298 -224 610 -422 855 -71 88 -262 275 -348 341 -303 233 -657 381 -1033 433 -139 20 -457 20 -592 0z m585 -40 c462 -61 896 -281 1231 -626 721 -742 798 -1890 182 -2724 -103 -140 -302 -339 -442 -442 -332 -245 -720 -387 -1125 -411 -624 -36 -1211 192 -1647 641 -721 742 -798 1890 -182 2724 103 140 302 339 442 442 447 330 985 468 1541 396z"/>
 <path d="M3700 6039 c-222 -28 -445 -96 -655 -199 -634 -310 -1067 -917 -1154 -1620 -14 -109 -14 -401 0 -510 29 -234 93 -449 199 -665 111 -227 237 -400 417 -576 329 -321 747 -522 1203 -578 109 -14 401 -14 510 0 611 75 1143 406 1493 927 79 118 187 342 235 487 74 223 102 404 102 660 0 257 -28 438 -102 660 -254 764 -928 1315 -1728 1414 -98 13 -424 12 -520 0z m545 -45 c772 -106 1416 -642 1665 -1385 138 -411 138 -877 0 -1288 -206 -614 -687 -1095 -1301 -1301 -360 -120 -765 -136 -1133 -44 -587 147 -1074 538 -1345 1079 -144 289 -213 582 -213 910 0 241 32 436 105 650 320 940 1244 1513 2222 1379z"/>
 <path d="M3740 5984 c-14 -2 -70 -11 -125 -20 -55 -9 -152 -31 -215 -49 -763 -220 -1335 -879 -1444 -1664 -21 -146 -21 -426 0 -572 120 -865 787 -1554 1659 -1715 144 -27 556 -27 700 0 872 161 1539 850 1659 1715 21 146 21 426 0 572 -109 785 -682 1445 -1444 1664 -197 56 -281 67 -535 71 -126 1 -241 0 -255 -2z m504 -50 c826 -113 1504 -755 1671 -1580 180 -886 -276 -1792 -1098 -2184 -901 -430 -1969 -126 -2521 717 -424 648 -424 1508 0 2156 431 657 1173 997 1948 891z"/>
 <path d="M3710 5910 c-432 -60 -825 -254 -1130 -560 -276 -276 -453 -605 -537 -997 -26 -121 -27 -143 -27 -388 0 -245 1 -267 27 -388 168 -785 749 -1366 1535 -1534 120 -26 142 -27 387 -27 245 0 267 1 387 27 391 83 724 262 998 537 276 276 453 605 537 997 26 121 27 143 27 388 0 245 -1 267 -27 388 -167 783 -751 1368 -1530 1533 -107 23 -151 26 -352 29 -126 2 -259 0 -295 -5z m480 -325 c694 -99 1235 -613 1382 -1313 19 -91 23 -137 22 -312 0 -172 -4 -221 -22 -307 -144 -667 -627 -1150 -1295 -1295 -87 -19 -133 -22 -312 -22 -179 0 -225 3 -312 22 -668 145 -1151 628 -1295 1295 -18 86 -22 135 -22 307 -1 227 14 325 75 512 244 748 1003 1223 1779 1113z"/>
 </g>

</svg>