<!DOCTYPE svg PUBLIC "-//W3C//DTD SVG 20010904//EN" "http://www.w3.org/TR/2001/REC-SVG-20010904/DTD/svg10.dtd">
<svg version="1.0" xmlns="http://www.w3.org/2000/svg" width="554px" height="554px" viewBox="0 0 5540 5540" preserveAspectRatio="xMidYMid meet">
<g id="layer101" fill="#8a8c8e" stroke="none">
 <path d="M2870 5518 c-49 -26 -80 -74 -80 -125 0 -18 113 -335 251 -705 199 -534 256 -679 279 -703 25 -25 39 -30 93 -33 57 -4 66 -2 96 24 36 30 61 78 61 117 0 14 -113 328 -251 698 -179 480 -259 682 -277 702 -24 25 -76 47 -112 47 -9 0 -36 -10 -60 -22z"/>
 <path d="M2314 5336 c-62 -62 -64 -54 216 -708 168 -390 258 -589 273 -600 82 -63 197 -7 197 96 0 58 -479 1180 -521 1219 -24 22 -39 27 -80 27 -45 0 -55 -4 -85 -34z"/>
 <path d="M1825 5098 c-15 -13 -28 -38 -31 -58 -5 -32 23 -94 251 -550 141 -283 264 -523 272 -532 22 -24 77 -33 114 -18 31 13 59 55 59 90 0 27 -501 1041 -528 1068 -31 31 -101 30 -137 0z"/>
 <path d="M4463 4777 c-67 -49 -93 -77 -57 -63 26 10 144 97 144 107 0 15 -13 9 -87 -44z"/>
 <path d="M1387 4752 c-39 -42 -28 -67 229 -522 136 -239 256 -445 267 -457 44 -49 127 -17 127 48 0 22 -70 154 -241 458 -133 234 -253 441 -266 459 -20 26 -31 32 -62 32 -24 0 -44 -7 -54 -18z"/>
 <path d="M4575 4598 c-102 -57 -100 -56 -93 -64 8 -7 198 95 198 107 0 15 -10 10 -105 -43z"/>
 <path d="M4685 4374 c-55 -24 -104 -45 -110 -47 -5 -2 -7 -7 -4 -11 9 -9 229 83 229 95 0 13 -5 11 -115 -37z"/>
 <path d="M982 4288 c-29 -29 -8 -65 250 -421 144 -199 266 -365 272 -369 31 -21 86 7 86 44 0 13 -483 691 -527 741 -18 20 -63 23 -81 5z"/>
 <path d="M4775 4102 c-136 -37 -142 -39 -133 -48 6 -6 255 59 265 70 16 15 -11 11 -132 -22z"/>
 <path d="M4816 3823 c-123 -13 -145 -17 -135 -27 7 -7 327 28 335 37 10 10 -47 7 -200 -10z"/>
 <path d="M692 3788 c-6 -6 -12 -20 -12 -29 0 -23 537 -589 559 -589 28 0 43 16 39 43 -4 32 -522 581 -552 585 -12 2 -27 -3 -34 -10z"/>
 <path d="M4690 3551 c0 -6 1 -11 3 -12 18 -5 393 -46 396 -43 14 13 -30 23 -169 38 -85 10 -172 20 -192 23 -25 4 -38 2 -38 -6z"/>
 <path d="M4660 3268 c0 -8 88 -40 223 -81 122 -37 225 -68 230 -67 4 0 7 6 7 13 0 11 -414 147 -448 147 -7 0 -12 -6 -12 -12z"/>
 <path d="M501 3256 c-6 -7 -9 -20 -6 -27 11 -24 534 -391 553 -387 9 2 18 12 20 23 2 16 -53 60 -266 213 -148 105 -274 192 -279 192 -6 0 -16 -6 -22 -14z"/>
 <path d="M4602 3003 c2 -12 82 -54 243 -130 132 -62 246 -113 253 -113 8 0 12 8 10 17 -2 11 -86 55 -243 129 -132 62 -246 113 -253 113 -8 1 -12 -7 -10 -16z"/>
 <path d="M422 2763 c2 -11 86 -55 243 -129 132 -62 246 -113 253 -113 8 -1 12 7 10 16 -2 11 -84 55 -243 130 -132 61 -246 112 -253 113 -8 0 -12 -8 -10 -17z"/>
 <path d="M4467 2693 c-23 -22 12 -53 263 -232 269 -192 306 -212 298 -159 -2 16 -74 74 -263 210 -243 175 -281 198 -298 181z"/>
 <path d="M410 2407 c0 -12 413 -147 449 -147 7 0 11 6 9 12 -4 12 -414 147 -445 148 -7 0 -13 -6 -13 -13z"/>
 <path d="M4263 2363 c-7 -2 -13 -17 -13 -31 1 -21 57 -86 266 -307 147 -154 275 -281 286 -283 24 -4 48 15 48 38 0 23 -538 590 -559 589 -9 0 -22 -3 -28 -6z"/>
 <path d="M443 2037 c4 -12 385 -63 395 -52 13 13 -18 20 -161 36 -83 10 -171 20 -195 23 -32 4 -43 3 -39 -7z"/>
 <path d="M3956 2034 c-9 -8 -16 -24 -16 -34 0 -16 470 -678 523 -737 36 -41 97 -25 97 24 0 15 -95 154 -251 371 -138 191 -261 357 -272 370 -24 26 -59 29 -81 6z"/>
 <path d="M3540 1770 c-41 -41 -32 -61 227 -519 135 -240 255 -446 266 -458 24 -27 72 -30 105 -7 49 34 39 57 -225 523 -135 240 -255 446 -266 459 -26 28 -79 30 -107 2z"/>
 <path d="M668 1731 c-80 -9 -150 -20 -155 -25 -5 -5 21 -6 62 -2 184 17 275 29 275 37 0 10 8 11 -182 -10z"/>
 <path d="M3091 1596 c-29 -16 -50 -52 -51 -88 0 -37 513 -1064 539 -1077 29 -16 93 -13 118 4 12 8 27 31 33 50 11 34 8 43 -56 178 -37 78 -154 316 -260 529 -163 327 -198 390 -223 403 -36 18 -68 19 -100 1z"/>
 <path d="M2028 1573 c-34 -21 -68 -82 -68 -121 0 -17 113 -334 250 -704 221 -592 255 -677 284 -704 87 -83 230 -30 243 89 4 36 -31 136 -241 700 -135 362 -253 672 -262 688 -8 16 -29 39 -47 49 -40 25 -121 26 -159 3z"/>
 <path d="M2595 1526 c-17 -7 -39 -25 -48 -39 -38 -58 -31 -78 229 -687 273 -640 267 -630 355 -630 45 0 55 4 85 34 61 61 63 54 -209 691 -134 314 -250 580 -258 593 -16 26 -67 52 -101 52 -12 -1 -37 -7 -53 -14z"/>
 <path d="M747 1456 c-111 -31 -136 -41 -126 -50 7 -6 269 68 269 76 0 12 -16 9 -143 -26z"/>
 <path d="M840 1186 c-57 -24 -106 -50 -108 -56 -3 -7 0 -11 5 -9 119 47 223 94 223 101 0 13 -8 10 -120 -36z"/>
 <path d="M943 959 c-51 -28 -93 -55 -93 -61 0 -13 1 -12 109 47 50 27 91 53 91 57 0 14 -13 9 -107 -43z"/>
 <path d="M1050 780 c-58 -44 -83 -70 -65 -70 8 0 155 109 155 115 0 14 -32 -2 -90 -45z"/>
 </g>

</svg>